<?xml version="1.0" encoding="iso-8859-1"?>
<!-- Generator: Adobe Illustrator 19.0.0, SVG Export Plug-In . SVG Version: 6.00 Build 0)  -->
<svg version="1.1" id="Layer_1" xmlns="http://www.w3.org/2000/svg" xmlns:xlink="http://www.w3.org/1999/xlink" x="0px" y="0px"
	 viewBox="0 0 512 512" style="enable-background:new 0 0 512 512;" xml:space="preserve">
<g>
	<polygon style="fill:#B3B3B3;" points="494.71,92.201 473.539,113.371 453.409,93.23 474.569,72.06 	"/>
	<polygon style="fill:#B3B3B3;" points="474.569,72.06 453.409,93.23 433.268,73.089 454.439,51.929 	"/>
	<polygon style="fill:#B3B3B3;" points="453.409,93.23 430.684,115.945 410.553,95.815 433.268,73.089 	"/>
	<polygon style="fill:#B3B3B3;" points="453.409,93.23 473.539,113.371 450.825,136.086 430.684,115.945 	"/>
	
		<rect x="371.569" y="140.43" transform="matrix(-0.7071 0.7071 -0.7071 -0.7071 812.8636 -27.3534)" style="fill:#B3B3B3;" width="81.056" height="28.486"/>
	<polygon style="fill:#B3B3B3;" points="430.684,115.945 373.371,173.257 353.241,153.116 410.553,95.815 	"/>
	<polygon style="fill:#B3B3B3;" points="353.241,153.116 373.371,173.257 278.262,268.366 258.132,248.236 	"/>
	
		<rect x="321.649" y="163.626" transform="matrix(0.7071 0.7071 -0.7071 0.7071 261.6355 -169.889)" style="fill:#B3B3B3;" width="28.486" height="134.502"/>
</g>
<g>
	<polygon style="fill:#4D4D4D;" points="258.132,259.853 246.517,248.236 347.433,147.307 404.746,90.006 427.458,67.282 
		448.632,46.119 460.1,34.628 471.729,46.233 460.253,57.732 439.074,78.899 416.363,101.622 359.049,158.924 	"/>
	<polygon style="fill:#4D4D4D;" points="491.87,66.397 480.371,77.874 459.218,99.037 278.262,279.982 266.645,268.366 
		480.265,54.769 	"/>
	<polygon style="fill:#4D4D4D;" points="500.523,98.003 298.403,300.123 286.786,288.506 500.373,74.899 512,86.505 	"/>
</g>
<g>
	<path style="fill:#999999;" d="M484.468,124.3c-2.353,2.353-6.166,2.353-8.519,0l-53.605-53.616c-2.353-2.353-2.353-6.167,0-8.519
		c2.353-2.353,6.166-2.353,8.519,0l53.605,53.616C486.821,118.134,486.82,121.948,484.468,124.3z"/>
	<path style="fill:#999999;" d="M461.75,147.013c-2.353,2.353-6.166,2.353-8.519,0l-53.605-53.605c-2.353-2.353-2.353-6.167,0-8.519
		c2.353-2.353,6.166-2.353,8.519,0l53.605,53.605C464.103,140.847,464.103,144.66,461.75,147.013z"/>
	<path style="fill:#999999;" d="M404.441,204.328c-2.353,2.353-6.166,2.353-8.519,0l-53.604-53.616
		c-2.353-2.353-2.353-6.167,0-8.519c2.353-2.353,6.166-2.353,8.519,0l53.604,53.616
		C406.794,198.162,406.793,201.976,404.441,204.328z"/>
	<polygon style="fill:#999999;" points="225.729,229.263 200.169,203.718 207.654,196.222 233.214,221.769 	"/>
</g>
<path style="fill:#808080;" d="M96.917,464.449l-12.223,12.213c-0.948,0.947-2.484,0.946-3.431-0.001l-8.182-8.188
	c-0.947-0.948-0.946-2.484,0.001-3.431l12.219-12.209l59.698-59.709l11.617,11.616L96.917,464.449z"/>
<polygon style="fill:#B3B3B3;" points="234.27,242.832 299.178,299.348 240.803,358.494 189.869,369.839 179.372,297.064 
	179.372,297.053 "/>
<g>
	<path style="fill:#666666;" d="M33.029,369.052c0,0-2.913,32.911,35.354,66.863l-25.54,25.551
		c-50.61-50.599-42.341-92.94-42.341-92.94L33.029,369.052z"/>
	<polygon style="fill:#666666;" points="321.892,310.447 307.436,324.904 290.909,308.388 229.478,246.947 212.951,230.42 
		227.408,215.963 258.907,247.462 279.037,267.592 299.178,287.733 	"/>
</g>
<path style="fill:#999999;" d="M231.334,349.025l-75.121,75.121l-18.93-18.919l-23.376-23.384
	c-5.333-5.335-5.333-13.983,0.001-19.316l65.463-65.463L231.334,349.025z"/>
<g>
	<path style="fill:#808080;" d="M249.701,380.569l-61.944,61.944c-3.638,3.638-9.537,3.638-13.177,0l-8.899-8.899l-19.221-19.221
		l75.121-75.121l19.221,19.221l8.899,8.899C253.34,371.031,253.34,376.93,249.701,380.569z"/>
	<path style="fill:#808080;" d="M249.269,298.87h-8.214v-8.214c0-2.118-1.716-3.833-3.833-3.833c-2.116,0-3.833,1.716-3.833,3.833
		v8.214h-8.214c-2.116,0-3.833,1.716-3.833,3.833s1.716,3.833,3.833,3.833h8.214v8.214c0,2.117,1.716,3.833,3.833,3.833
		c1.058,0,2.017-0.429,2.711-1.123c0.693-0.693,1.123-1.652,1.123-2.711v-8.214h8.214c1.058,0,2.017-0.429,2.711-1.123
		c0.693-0.693,1.123-1.652,1.123-2.711C253.102,300.586,251.386,298.871,249.269,298.87z"/>
</g>
<path style="fill:#B3B3B3;" d="M70.201,373.17c-2.833,2.833-3.209,7.296-0.889,10.563l21.282,29.979l-22.21,22.201l-0.001,0.001l0,0
	l-25.314,25.313c-1.063,1.063-1.063,2.787,0,3.851l7.591,7.591c1.063,1.063,2.787,1.063,3.851,0l19.505-19.505l21.721,21.721
	c1.713,1.713,4.491,1.713,6.204,0l5.411-5.411c1.713-1.713,1.713-4.491,0-6.204l-21.546-21.546l21.307-21.299l0.001-0.001
	c2.833-2.833,3.209-7.296,0.889-10.563l-21.283-29.98l137.845-137.845l-11.617-11.617L70.201,373.17z"/>
<g>
</g>
<g>
</g>
<g>
</g>
<g>
</g>
<g>
</g>
<g>
</g>
<g>
</g>
<g>
</g>
<g>
</g>
<g>
</g>
<g>
</g>
<g>
</g>
<g>
</g>
<g>
</g>
<g>
</g>
</svg>
